<?xml version="1.0" encoding="UTF-8"?>
<!DOCTYPE svg PUBLIC "-//W3C//DTD SVG 1.1//EN" "http://www.w3.org/Graphics/SVG/1.1/DTD/svg11.dtd">
<!-- Creator: CorelDRAW 2018 (64 Bit) -->
<svg xmlns="http://www.w3.org/2000/svg" xml:space="preserve" width="210mm" height="297mm" version="1.1" style="shape-rendering:geometricPrecision; text-rendering:geometricPrecision; image-rendering:optimizeQuality; fill-rule:evenodd; clip-rule:evenodd"
viewBox="0 0 21000 29700"
 xmlns:xlink="http://www.w3.org/1999/xlink">
 <defs>
  <style type="text/css">
   <![CDATA[
    .str0 {stroke:#FEFEFE;stroke-width:100;stroke-miterlimit:22.9256}
    .fil0 {fill:#FEFEFE}
    .fil1 {fill:white;fill-rule:nonzero}
   ]]>
  </style>
 </defs>
 <g id="Camada_x0020_1">
  <metadata id="CorelCorpID_0Corel-Layer"/>
  <path class="fil0" d="M7667.7 13787.78l-0.18 2854.77 -1018.56 13.2c-121.23,-697.18 -627.06,-1699.66 356.04,-2450.41 115.21,-87.98 551.93,-378.23 662.7,-417.56zm6712.68 2858.22l-1014.61 8.56 -0.06 -2867.91c459.21,229.25 910.41,598.52 1124.98,1055.21 307.84,655.2 4.24,1167.46 -110.31,1804.14zm-6093.94 -5540.31c0,-989.34 476.95,-2048.12 1087.88,-2538.45 75.34,-60.46 129.65,-92.93 196.9,-157.26l736.3 -673.85c63.33,-55.18 131.58,-103.3 195.02,-146.51l793.92 675.22c883.23,796.02 1421.97,1484.83 1422.18,2911.41 0.15,996.42 40.34,3347.01 -6.06,4189.3l-4421.52 -1c-40.5,-1150.26 -4.62,-3031.05 -4.62,-4258.86zm-19.22 6161.54l8.85 -1262.25c199.04,-8.74 478.73,-36.11 654.74,20.01l19.22 1638.3c51.31,169.89 201.98,288.38 434.77,193.06 302.13,-123.7 101.59,-1113.97 171.3,-1841.09l628.94 -1.74c41.78,415.92 11.87,2001.55 9.1,2606.89 -1.28,280.15 -0.78,554.3 308.5,555.43 289.15,1.06 309.99,-256 308.48,-519.55 -3.47,-603.01 -33.31,-2238.5 8.92,-2642.58l628.94 0.43c74.77,773.92 -140.1,1702.26 174.57,1839.78 228.16,99.71 378.68,-24.33 431.12,-192.44l14.17 -1636.5c181.44,-56.11 461.13,-28.74 653.34,-19.98l15.68 1262.23 2139.92 9.23c236.51,-846.39 555.1,-1876.87 181.89,-2718.5 -360.91,-813.87 -1021.53,-1060.56 -1721.75,-1546.04 -8.2,-1531.67 160.07,-2714.45 -557.48,-3972.02 -285.53,-500.43 -669.93,-886.14 -1059.44,-1199.37 -114.61,-92.17 -166.97,-177.58 -290.29,-273.32l-910.33 -835.96 -36.83 0c-72.52,116.62 -1021.59,894.64 -1197.81,1074.79 -101.98,104.26 -206.12,151.21 -305.13,261.06 -381.02,422.75 -350.14,291.81 -753.74,939.48 -702.52,1127.33 -562,2536.48 -559.17,3970.49l-967.08 641.42c-717.96,522.43 -1062.48,1397.3 -885.98,2313.81 79.76,414.15 200.9,944.04 312.66,1343.8l2139.92 -8.87z"/>
  <path class="fil0" d="M9569.29 11105.69c-191.4,-1291.79 1661.7,-1534.02 1876.07,-341.91 229.31,1275.15 -1697.52,1547.02 -1876.07,341.91zm-601.36 141.12c153.64,744.82 885.66,1406.11 1818.74,1231.32 2020.12,-378.41 1509.45,-3449.1 -573.48,-3082.87 -751.25,132.09 -1438.93,912.63 -1245.26,1851.55z"/>
  <path class="fil1 str0" d="M6000.53 5899.4l0 -348.14c0,-93.61 -40.95,-134.57 -134.57,-134.57l-588.03 0c-96.54,0 -149.2,-29.26 -149.2,-111.17l0 -696.28c0,-81.91 49.73,-117.02 149.2,-117.02l588.03 0c93.62,0 134.57,-40.96 134.57,-134.57l0 -353.99c0,-93.62 -40.95,-134.58 -134.57,-134.58l-713.83 0c-514.89,0 -748.93,201.86 -748.93,628.99l0 909.84c0,424.2 234.04,626.07 748.93,626.07l713.83 0c93.62,0 134.57,-40.96 134.57,-134.58zm-134.57 105.32l-713.83 0c-491.49,0 -719.68,-190.16 -719.68,-596.81l0 -909.84c0,-409.57 228.19,-599.73 719.68,-599.73l713.83 0c73.14,0 105.32,32.18 105.32,105.32l0 353.99c0,73.13 -32.18,105.32 -105.32,105.32l-588.03 0c-122.87,0 -178.46,46.8 -178.46,146.27l0 696.28c0,96.54 55.59,140.42 178.46,140.42l588.03 0c73.14,0 105.32,32.18 105.32,105.32l0 348.14c0,73.14 -32.18,105.32 -105.32,105.32zm-160.9 -292.55l-488.57 0c-351.06,0 -438.83,-93.62 -438.83,-348.14l0 -819.15c0,-260.37 93.62,-353.99 438.83,-353.99l488.57 0 0 -29.25 -488.57 0c-374.47,0 -468.08,105.32 -468.08,383.24l0 819.15c0,272.07 87.76,377.39 468.08,377.39l488.57 0 0 -29.25zm2396.01 -1257.98c0,-368.62 -169.68,-628.99 -936.17,-628.99 -766.49,0 -939.09,260.37 -939.09,628.99l0 997.6c0,368.62 172.6,626.07 939.09,626.07 766.49,0 936.17,-257.45 936.17,-626.07l0 -997.6zm-29.26 997.6c0,356.92 -175.53,596.81 -906.91,596.81 -731.38,0 -909.84,-239.89 -909.84,-596.81l0 -997.6c0,-356.92 178.46,-599.73 909.84,-599.73 731.38,0 906.91,242.81 906.91,599.73l0 997.6zm-318.88 -67.28l0 -863.03c0,-236.97 -134.57,-394.95 -593.88,-394.95 -459.31,0 -588.03,157.98 -588.03,394.95l0 863.03c0,236.97 128.72,394.94 588.03,394.94 459.31,0 593.88,-157.97 593.88,-394.94zm-1152.66 0l0 -863.03c0,-219.42 122.88,-365.69 558.78,-365.69 435.9,0 564.63,146.27 564.63,365.69l0 863.03c0,219.41 -128.73,365.69 -564.63,365.69 -435.9,0 -558.78,-146.28 -558.78,-365.69zm318.89 -38.03c0,78.99 35.1,137.5 245.74,137.5 213.56,0 245.75,-58.51 245.75,-137.5l0 -786.97c0,-76.07 -32.19,-134.58 -245.75,-134.58 -210.64,0 -245.74,58.51 -245.74,134.58l0 786.97zm29.25 -786.97c0,-67.29 52.66,-105.32 216.49,-105.32 166.76,0 216.49,38.03 216.49,105.32l0 786.97c0,70.21 -49.73,108.24 -216.49,108.24 -166.75,0 -216.49,-38.03 -216.49,-108.24l0 -786.97zm3106.92 930.32l0 -307.18c0,-345.22 -190.16,-471.01 -482.71,-514.9l-435.91 -58.51c-35.1,-2.92 -52.66,-29.25 -52.66,-64.36 0,-32.18 17.56,-58.51 49.74,-58.51l681.65 0c93.61,0 134.57,-40.96 134.57,-134.57l0 -348.14c0,-93.62 -40.96,-134.58 -134.57,-134.58l-819.15 0c-400.8,0 -634.84,193.09 -634.84,544.15l0 307.18c0,345.21 187.23,471.01 479.78,514.9l438.83 61.43c35.11,2.93 49.74,26.33 49.74,70.21 0,29.26 -14.63,55.59 -46.81,55.59l-786.97 0c-93.62,0 -134.57,40.96 -134.57,134.57l0 342.29c0,93.62 40.95,134.58 134.57,134.58l924.47 0c397.87,0 634.84,-193.09 634.84,-544.15zm-634.84 514.89l-924.47 0c-73.14,0 -105.32,-32.18 -105.32,-105.32l0 -342.29c0,-73.13 32.18,-105.32 105.32,-105.32l786.97 0c49.73,0 76.06,-38.03 76.06,-84.84 0,-67.28 -26.33,-93.61 -76.06,-99.46l-438.83 -61.44c-275,-40.96 -453.46,-157.98 -453.46,-485.64l0 -307.18c0,-333.51 225.27,-514.89 605.59,-514.89l819.15 0c73.13,0 105.31,32.18 105.31,105.32l0 348.14c0,73.13 -32.18,105.31 -105.31,105.31l-681.65 0c-49.74,0 -78.99,35.11 -78.99,87.77 0,52.66 29.25,87.77 78.99,93.62l435.9 58.51c275,40.96 456.38,157.98 456.38,485.64l0 307.18c0,333.51 -228.19,514.89 -605.58,514.89zm236.97 -1843.08l-649.47 0c-181.38,0 -298.41,111.17 -298.41,266.22l0 239.89c0,160.91 70.22,204.79 172.61,225.27l617.29 125.8c108.24,23.4 178.46,73.13 178.46,257.44l0 169.68c0,155.06 -114.1,266.23 -295.48,266.23l-728.46 0 0 29.25 728.46 0c198.93,0 324.73,-122.87 324.73,-295.48l0 -169.68c0,-204.78 -84.84,-263.29 -201.86,-286.7l-617.29 -125.8c-90.69,-17.55 -149.2,-58.51 -149.2,-196.01l0 -239.89c0,-137.5 105.32,-236.97 269.15,-236.97l649.47 0 0 -29.25zm1717.28 716.75c-70.21,0 -81.92,-20.48 -149.2,-122.87l-356.92 -544.15c-23.4,-38.03 -55.58,-49.73 -87.76,-49.73l-49.74 0c-52.66,0 -76.06,26.33 -76.06,90.69l0 1489.09 29.25 0 0 -1489.09c0,-32.18 5.85,-61.44 46.81,-61.44l43.88 0c26.33,0 46.81,2.93 70.22,40.96l356.91 538.3c70.21,105.32 87.77,137.5 172.61,137.5 84.84,0 102.39,-32.18 172.6,-137.5l356.92 -538.3c23.4,-38.03 40.96,-40.96 67.29,-40.96l43.88 0c40.96,0 49.73,29.26 49.73,61.44l0 1489.09 29.26 0 0 -1489.09c0,-64.36 -23.41,-90.69 -78.99,-90.69l-49.73 0c-32.19,0 -61.44,11.7 -84.85,49.73l-356.91 544.15c-67.29,102.39 -78.99,122.87 -149.2,122.87zm-488.57 1126.33l-435.9 0c-73.14,0 -105.32,-32.18 -105.32,-105.32l0 -1895.74c0,-73.14 32.18,-105.32 105.32,-105.32l471.01 0c61.44,0 99.47,23.4 134.58,87.76l263.29 476.87c20.48,35.1 29.26,49.73 52.66,49.73l26.33 0c23.41,0 32.18,-14.63 52.66,-49.73l260.37 -476.87c35.11,-64.36 73.14,-87.76 134.58,-87.76l473.93 0c73.14,0 105.32,32.18 105.32,105.32l0 1895.74c0,73.14 -32.18,105.32 -105.32,105.32l-450.53 0c-76.06,0 -105.32,-32.18 -105.32,-105.32l0 -1029.79 -172.6 318.89c-35.11,67.28 -78.99,93.61 -155.06,93.61l-117.02 0c-76.06,0 -119.94,-26.33 -155.05,-93.61l-172.61 -318.89 0 1029.79c0,73.14 -32.18,105.32 -105.32,105.32zm0 29.26c93.62,0 134.58,-40.96 134.58,-134.58l0 -912.76 117.02 216.48c40.96,76.07 93.62,108.25 181.38,108.25l117.02 0c87.77,0 140.43,-32.18 181.39,-108.25l117.02 -216.48 0 912.76c0,93.62 38.03,134.58 134.57,134.58l450.53 0c93.62,0 134.58,-40.96 134.58,-134.58l0 -1895.74c0,-93.62 -40.96,-134.58 -134.58,-134.58l-473.93 0c-73.14,0 -117.02,26.33 -160.91,102.4l-260.37 476.86c-8.77,17.55 -11.7,35.1 -26.33,35.1l-26.33 0c-14.63,0 -17.55,-17.55 -26.33,-35.1l-263.29 -476.86c-43.89,-76.07 -87.77,-102.4 -160.91,-102.4l-471.01 0c-93.62,0 -134.57,40.96 -134.57,134.58l0 1895.74c0,93.62 40.95,134.58 134.57,134.58l435.9 0zm3756.38 -1579.79c0,-368.62 -169.68,-628.99 -936.17,-628.99 -766.49,0 -939.09,260.37 -939.09,628.99l0 997.6c0,368.62 172.6,626.07 939.09,626.07 766.49,0 936.17,-257.45 936.17,-626.07l0 -997.6zm-29.26 997.6c0,356.92 -175.53,596.81 -906.91,596.81 -731.38,0 -909.84,-239.89 -909.84,-596.81l0 -997.6c0,-356.92 178.46,-599.73 909.84,-599.73 731.38,0 906.91,242.81 906.91,599.73l0 997.6zm-318.88 -67.28l0 -863.03c0,-236.97 -134.57,-394.95 -593.88,-394.95 -459.31,0 -588.03,157.98 -588.03,394.95l0 863.03c0,236.97 128.72,394.94 588.03,394.94 459.31,0 593.88,-157.97 593.88,-394.94zm-1152.66 0l0 -863.03c0,-219.42 122.88,-365.69 558.78,-365.69 435.9,0 564.63,146.27 564.63,365.69l0 863.03c0,219.41 -128.73,365.69 -564.63,365.69 -435.9,0 -558.78,-146.28 -558.78,-365.69zm318.89 -38.03c0,78.99 35.1,137.5 245.74,137.5 213.56,0 245.75,-58.51 245.75,-137.5l0 -786.97c0,-76.07 -32.19,-134.58 -245.75,-134.58 -210.64,0 -245.74,58.51 -245.74,134.58l0 786.97zm29.25 -786.97c0,-67.29 52.66,-105.32 216.49,-105.32 166.76,0 216.49,38.03 216.49,105.32l0 786.97c0,70.21 -49.73,108.24 -216.49,108.24 -166.75,0 -216.49,-38.03 -216.49,-108.24l0 -786.97zm3106.92 930.32l0 -307.18c0,-345.22 -190.16,-471.01 -482.71,-514.9l-435.91 -58.51c-35.1,-2.92 -52.66,-29.25 -52.66,-64.36 0,-32.18 17.56,-58.51 49.74,-58.51l681.65 0c93.61,0 134.57,-40.96 134.57,-134.57l0 -348.14c0,-93.62 -40.96,-134.58 -134.57,-134.58l-819.15 0c-400.8,0 -634.84,193.09 -634.84,544.15l0 307.18c0,345.21 187.23,471.01 479.78,514.9l438.83 61.43c35.11,2.93 49.74,26.33 49.74,70.21 0,29.26 -14.63,55.59 -46.81,55.59l-786.97 0c-93.62,0 -134.57,40.96 -134.57,134.57l0 342.29c0,93.62 40.95,134.58 134.57,134.58l924.47 0c397.87,0 634.84,-193.09 634.84,-544.15zm-634.84 514.89l-924.47 0c-73.14,0 -105.32,-32.18 -105.32,-105.32l0 -342.29c0,-73.13 32.18,-105.32 105.32,-105.32l786.97 0c49.73,0 76.06,-38.03 76.06,-84.84 0,-67.28 -26.33,-93.61 -76.06,-99.46l-438.83 -61.44c-275,-40.96 -453.46,-157.98 -453.46,-485.64l0 -307.18c0,-333.51 225.27,-514.89 605.59,-514.89l819.15 0c73.13,0 105.31,32.18 105.31,105.32l0 348.14c0,73.13 -32.18,105.31 -105.31,105.31l-681.65 0c-49.74,0 -78.99,35.11 -78.99,87.77 0,52.66 29.25,87.77 78.99,93.62l435.9 58.51c275,40.96 456.38,157.98 456.38,485.64l0 307.18c0,333.51 -228.19,514.89 -605.58,514.89zm236.97 -1843.08l-649.47 0c-181.38,0 -298.41,111.17 -298.41,266.22l0 239.89c0,160.91 70.22,204.79 172.61,225.27l617.29 125.8c108.24,23.4 178.46,73.13 178.46,257.44l0 169.68c0,155.06 -114.1,266.23 -295.48,266.23l-728.46 0 0 29.25 728.46 0c198.93,0 324.73,-122.87 324.73,-295.48l0 -169.68c0,-204.78 -84.84,-263.29 -201.86,-286.7l-617.29 -125.8c-90.69,-17.55 -149.2,-58.51 -149.2,-196.01l0 -239.89c0,-137.5 105.32,-236.97 269.15,-236.97l649.47 0 0 -29.25z"/>
 </g>
</svg>
